<svg width="20.000000" height="20.000000" viewBox="0 0 20 20" fill="none" xmlns="http://www.w3.org/2000/svg" xmlns:xlink="http://www.w3.org/1999/xlink">
	<desc>
			Created with Pixso.
	</desc>
	<defs>
		<linearGradient id="paint_linear_1_4392_0" x1="10.001806" y1="2.000000" x2="10.001806" y2="18.000000" gradientUnits="userSpaceOnUse">
			<stop stop-color="#F82020"/>
			<stop offset="1.000000" stop-color="#C21212"/>
		</linearGradient>
	</defs>
	<path id="形状" d="M16.5594 4.4812C16.3204 4.35938 16.0182 4.29877 15.651 4.29877L15.651 4.29883L14.8072 4.29883C14.5133 4.29883 14.2387 4.29285 13.9821 4.2804L13.9821 3.14984C13.9821 2.83313 13.8988 2.5625 13.7341 2.33734C13.5692 2.11261 13.2725 2 12.8448 2L7.10364 2C6.785 2 6.51663 2.11261 6.29599 2.33734C6.07623 2.56256 5.96623 2.83325 5.96623 3.14984L5.96623 4.26257L4.33344 4.26257C4.0157 4.26257 3.74086 4.3172 3.50829 4.42657C3.27571 4.53589 3.08612 4.67285 2.93959 4.83746C2.79306 5.00104 2.68314 5.18079 2.60992 5.37506C2.53661 5.56995 2.5 5.7464 2.5 5.90448C2.5 6.2207 2.50548 6.40912 2.51839 6.46979C2.51839 6.51849 2.52386 6.54889 2.5367 6.56116L3.67337 6.56116L3.67337 15.9568C3.67337 16.2729 3.73192 16.5551 3.84828 16.8051C3.96352 17.0542 4.12296 17.2675 4.3244 17.4429C4.5269 17.6194 4.7677 17.7564 5.04875 17.8538C5.33084 17.9513 5.63026 18 5.94817 18L14.1289 18C14.4716 18 14.7737 17.9486 15.0366 17.8446C15.2994 17.7418 15.5228 17.6048 15.706 17.4348C15.8892 17.2648 16.0303 17.0662 16.1282 16.842C16.2261 16.6168 16.2748 16.3825 16.2748 16.1388L16.2748 6.5611L17.4855 6.5611L17.4855 6.45135C17.4855 6.41547 17.4881 6.37225 17.4946 6.32404C17.5009 6.27533 17.5036 6.2088 17.5036 6.12323C17.5036 5.9408 17.4762 5.74323 17.4213 5.5304C17.3663 5.3172 17.2683 5.11945 17.1273 4.9375C16.9873 4.75507 16.7976 4.60297 16.5594 4.4812ZM7.10379 4.29877L12.845 4.29877L12.845 3.14984L7.10379 3.14984L7.10379 4.29877ZM7.12218 15.0993C7.12218 15.5975 6.92621 15.8476 6.53517 15.8476C6.32719 15.8476 6.18349 15.7868 6.10373 15.6647C6.02405 15.5433 5.9847 15.3549 5.9847 15.0993L5.9847 6.63416L7.12218 6.63416L7.12218 15.0993ZM10.0014 15.8292C10.2093 15.8292 10.3504 15.7712 10.4237 15.6555C10.4969 15.5405 10.5334 15.3549 10.5334 15.0993L10.5334 6.63416L9.39601 6.63416L9.39601 15.0993C9.39601 15.5856 9.59851 15.8292 10.0014 15.8292ZM13.89 15.6196C13.8167 15.7355 13.6702 15.7925 13.4504 15.7925C13.0465 15.7925 12.8451 15.5498 12.845 15.0627L12.845 6.63416L14.0007 6.63416L14.0007 15.0627C14.0007 15.3182 13.9641 15.5038 13.89 15.6196Z" clip-rule="evenodd" fill-rule="evenodd" fill="url(#paint_linear_1_4392_0)" fill-opacity="1.000000"/>
</svg>
