<svg width="20.000000" height="20.000000" viewBox="0 0 20 20" fill="none" xmlns="http://www.w3.org/2000/svg" xmlns:xlink="http://www.w3.org/1999/xlink">
	<desc>
			Created with Pixso.
	</desc>
	<defs>
		<linearGradient id="paint_linear_1_2458_0" x1="10.000000" y1="2.000000" x2="10.000000" y2="18.000000" gradientUnits="userSpaceOnUse">
			<stop stop-color="#2798FF"/>
			<stop offset="1.000000" stop-color="#1B5FFF"/>
		</linearGradient>
	</defs>
	<mask id="path-1-inside-1" fill="white">
		<path id="形状结合" d="M10 18C14.4143 18 18 14.4142 18 10C18 5.58575 14.4143 2 10 2C5.58572 2 2 5.58575 2 10C2 14.4142 5.58572 18 10 18ZM10.5714 5.92859L10.5714 9.42859L14.0714 9.42859C14.3476 9.42859 14.5714 9.6524 14.5714 9.92859L14.5714 10.0714C14.5714 10.3476 14.3476 10.5714 14.0714 10.5714L10.5714 10.5714L10.5714 14.0714C10.5714 14.3476 10.3476 14.5714 10.0714 14.5714L9.92857 14.5714C9.65244 14.5714 9.42857 14.3476 9.42857 14.0714L9.42857 10.5714L5.92857 10.5714C5.65244 10.5714 5.42857 10.3476 5.42857 10.0714L5.42857 9.92859C5.42857 9.6524 5.65244 9.42859 5.92857 9.42859L9.42857 9.42859L9.42857 5.92859C9.42857 5.6524 9.65244 5.42859 9.92857 5.42859L10.0714 5.42859C10.3476 5.42859 10.5714 5.6524 10.5714 5.92859Z" clip-rule="evenodd" fill-rule="evenodd" fill-opacity="0.000000"/>
	</mask>
	<path id="形状结合" d="M10 18C14.4143 18 18 14.4142 18 10C18 5.58575 14.4143 2 10 2C5.58572 2 2 5.58575 2 10C2 14.4142 5.58572 18 10 18ZM10.5714 5.92859L10.5714 9.42859L14.0714 9.42859C14.3476 9.42859 14.5714 9.6524 14.5714 9.92859L14.5714 10.0714C14.5714 10.3476 14.3476 10.5714 14.0714 10.5714L10.5714 10.5714L10.5714 14.0714C10.5714 14.3476 10.3476 14.5714 10.0714 14.5714L9.92857 14.5714C9.65244 14.5714 9.42857 14.3476 9.42857 14.0714L9.42857 10.5714L5.92857 10.5714C5.65244 10.5714 5.42857 10.3476 5.42857 10.0714L5.42857 9.92859C5.42857 9.6524 5.65244 9.42859 5.92857 9.42859L9.42857 9.42859L9.42857 5.92859C9.42857 5.6524 9.65244 5.42859 9.92857 5.42859L10.0714 5.42859C10.3476 5.42859 10.5714 5.6524 10.5714 5.92859Z" clip-rule="evenodd" fill-rule="evenodd" fill="url(#paint_linear_1_2458_0)" fill-opacity="1.000000"/>
</svg>
