<svg width="20.000000" height="20.000000" viewBox="0 0 20 20" fill="none" xmlns="http://www.w3.org/2000/svg" xmlns:xlink="http://www.w3.org/1999/xlink">
	<desc>
			Created with Pixso.
	</desc>
	<defs>
		<linearGradient id="paint_linear_3_10598_0" x1="10.000000" y1="2.000000" x2="10.000000" y2="18.000000" gradientUnits="userSpaceOnUse">
			<stop stop-color="#2798FF"/>
			<stop offset="1.000000" stop-color="#1B5FFF"/>
		</linearGradient>
	</defs>
	<g opacity="0.000000">
		<rect id="矩形" width="20.000000" height="20.000000" fill="#FFFFFF"/>
	</g>
	<circle id="椭圆形备份 2" r="8.000000" transform="matrix(1 0 0 1 10 10)" fill="url(#paint_linear_3_10598_0)"/>
	<mask id="path-1-inside-1" fill="white">
		<path id="形状" d="M6.85498 11.0958L11.805 6.14575C12.0001 5.95123 12.3159 5.95123 12.511 6.14679C12.7062 6.34204 12.7062 6.65851 12.511 6.85376L7.56097 11.8038C7.43524 11.9335 7.24927 11.9854 7.07452 11.9394C6.89978 11.8934 6.76349 11.7567 6.71796 11.5818C6.67242 11.4069 6.72485 11.2211 6.85498 11.0958ZM13.8289 12.4578L6.50092 12.4578L6.41095 12.4658C6.15613 12.5119 5.9787 12.745 6.00208 13.0029C6.02545 13.2609 6.24194 13.4583 6.50092 13.4578L13.8289 13.4578L13.9189 13.4498C14.1738 13.4036 14.3512 13.1705 14.3278 12.9126C14.3044 12.6547 14.088 12.4573 13.8289 12.4578Z" clip-rule="evenodd" fill-rule="evenodd" fill-opacity="0.000000"/>
	</mask>
	<path id="形状" d="M6.85498 11.0958L11.805 6.14575C12.0001 5.95123 12.3159 5.95123 12.511 6.14679C12.7062 6.34204 12.7062 6.65851 12.511 6.85376L7.56097 11.8038C7.43524 11.9335 7.24927 11.9854 7.07452 11.9394C6.89978 11.8934 6.76349 11.7567 6.71796 11.5818C6.67242 11.4069 6.72485 11.2211 6.85498 11.0958ZM13.8289 12.4578L6.50092 12.4578L6.41095 12.4658C6.15613 12.5119 5.9787 12.745 6.00208 13.0029C6.02545 13.2609 6.24194 13.4583 6.50092 13.4578L13.8289 13.4578L13.9189 13.4498C14.1738 13.4036 14.3512 13.1705 14.3278 12.9126C14.3044 12.6547 14.088 12.4573 13.8289 12.4578Z" clip-rule="evenodd" fill-rule="evenodd" fill="#FFFFFF" fill-opacity="1.000000"/>
	<path id="形状" d="M6.81964 11.0604L11.7696 6.11041C12.0289 5.85199 12.2878 5.85236 12.5464 6.11145C12.8055 6.37067 12.8055 6.62988 12.5463 6.8891L7.59631 11.8391C7.44745 11.9929 7.26929 12.0424 7.06183 11.9877C6.85437 11.9332 6.72357 11.802 6.66956 11.5944C6.61554 11.3868 6.66577 11.2086 6.82031 11.0598L6.81964 11.0604ZM6.88965 11.1318C6.76324 11.2535 6.72211 11.3994 6.76636 11.5692C6.81055 11.7391 6.91754 11.8464 7.08728 11.8911C7.25702 11.9357 7.40314 11.8948 7.52563 11.7684L12.4756 6.81842C12.6876 6.60632 12.6876 6.39423 12.4756 6.18207C12.264 5.97015 12.0523 5.96979 11.8403 6.18115L6.89032 11.1311L6.88965 11.1318ZM13.8289 12.5078L6.50092 12.5078L6.50092 12.4578L6.50537 12.5076L6.41534 12.5156L6.41095 12.4658L6.41986 12.515C6.14972 12.5638 6.02704 12.725 6.05188 12.9984C6.07666 13.2718 6.22632 13.4083 6.50085 13.4078L13.8289 13.4077L13.8289 13.4578L13.8245 13.408L13.9145 13.4L13.9189 13.4498L13.91 13.4006C14.1802 13.3516 14.3029 13.1905 14.278 12.9171C14.2532 12.6437 14.1036 12.5073 13.829 12.5078L13.8289 12.5078ZM13.8289 12.4078C14.1644 12.4071 14.3473 12.5739 14.3776 12.908C14.408 13.2422 14.258 13.4391 13.9279 13.499L13.9256 13.4993L13.8312 13.5078L6.50104 13.5078C6.16553 13.5084 5.9826 13.3416 5.95227 13.0074C5.92194 12.6733 6.0719 12.4763 6.40204 12.4166L6.40424 12.4161L6.49872 12.4077L13.8289 12.4077L13.8289 12.4078Z" fill-rule="evenodd" fill="#FFFFFF" fill-opacity="1.000000"/>
</svg>
