<svg width="19.999985" height="20.000000" viewBox="0 0 20 20" fill="none" xmlns="http://www.w3.org/2000/svg" xmlns:xlink="http://www.w3.org/1999/xlink">
	<desc>
			Created with Pixso.
	</desc>
	<defs>
		<linearGradient id="paint_linear_11_11811_0" x1="9.999985" y1="2.000000" x2="9.999985" y2="18.000000" gradientUnits="userSpaceOnUse">
			<stop stop-color="#2798FF"/>
			<stop offset="1.000000" stop-color="#1B5FFF"/>
		</linearGradient>
	</defs>
	<g opacity="0.000000">
		<rect id="矩形" x="-2.000000" y="-2.000000" width="24.000000" height="24.000000" fill="#FFFFFF"/>
	</g>
	<circle id="椭圆形备份 2" r="8.000000" transform="matrix(1 0 0 1 9.99998 10)" fill="url(#paint_linear_11_11811_0)"/>
	<path id="path" d="M11.2526 9.59833C11.1881 9.53931 11.1194 9.48615 11.0486 9.43689C10.9757 9.37274 10.8766 9.33331 10.7675 9.33331C10.5436 9.33331 10.3621 9.49945 10.3621 9.70435C10.3621 9.79504 10.3977 9.87811 10.4567 9.94257C10.4851 9.97351 10.5189 10.0002 10.5567 10.0214C10.595 10.0502 10.6325 10.0786 10.6676 10.1108L10.701 10.1414C11.1212 10.5255 10.9958 11.1872 10.5756 11.5718L8.78252 13.2123C8.36232 13.5964 7.67918 13.5964 7.25899 13.2123L7.2253 13.1815C6.80507 12.7969 6.80507 12.1712 7.2253 11.7876L8.01747 11.0629C8.11909 10.989 8.18434 10.8751 8.18434 10.7471C8.18434 10.5245 7.9872 10.3441 7.744 10.3441C7.65221 10.3441 7.56703 10.3698 7.49648 10.4138L7.48735 10.4197C7.45616 10.4402 7.42796 10.4643 7.40361 10.4914L6.5804 11.1964C5.80656 11.9051 5.80656 13.0642 6.5804 13.7719L6.61382 13.8025C7.38765 14.5103 8.65358 14.5103 9.42741 13.8025L11.22 12.1615C11.9927 11.4533 12.0583 10.3361 11.2855 9.62842L11.2526 9.59833Z" fill-rule="nonzero" fill="#FFFFFF"/>
	<path id="path" d="M13.7519 6.57916L13.7184 6.54761C12.9431 5.81744 11.6747 5.81744 10.8993 6.54761L9.10332 8.2395C8.32796 8.9696 8.28526 10.024 9.06062 10.7546L9.09358 10.7852C9.12877 10.8184 9.16533 10.8496 9.20262 10.8796C9.22963 10.908 9.26137 10.9323 9.29665 10.9515C9.35283 10.982 9.4189 11 9.48839 11C9.70021 11 9.8719 10.8383 9.8719 10.6389C9.8719 10.5826 9.8582 10.5293 9.83379 10.4818C9.7831 10.3746 9.68819 10.3093 9.62254 10.2475L9.58958 10.2169C9.16856 9.8205 9.32845 9.24445 9.74947 8.84802L11.5466 7.15662C11.9665 6.76013 12.6512 6.76013 13.0722 7.15662L13.1058 7.18768C13.5267 7.58417 13.5267 8.22943 13.1058 8.62543L12.3146 9.37097C12.207 9.44604 12.1372 9.56647 12.1372 9.70227C12.1372 9.92993 12.3332 10.1144 12.5749 10.1144C12.659 10.1144 12.7375 10.092 12.8042 10.0533L12.818 10.045C12.8558 10.0212 12.8894 9.99188 12.9176 9.95844L13.7514 9.23395C14.5273 8.50378 14.5273 7.30933 13.7519 6.57916Z" fill-rule="nonzero" fill="#FFFFFF"/>
</svg>
